<svg viewBox="0 0 395.20153 407.51209" xmlns="http://www.w3.org/2000/svg" xmlns:xlink="http://www.w3.org/1999/xlink"><clipPath id="a" transform="translate(-321.07304 -142.00231)"><path d="m331.23982 142h381.52036v381.53019h-381.52036z"/></clipPath><clipPath id="b" transform="translate(-321.07304 -142.00231)"><path d="m521.79114 142a190.52872 190.52872 0 0 0 -189.30152 169.19952 193.89349 193.89349 0 0 0 -1.2498 21.49651v.9801a190.803 190.803 0 0 0 169.20281 188.61742 193.43828 193.43828 0 0 0 21.78265 1.23664 190.86615 190.86615 0 0 0 190.53487-190.86706v-.26639c-.11181-95.51083-72.05409-178.0994-169.18637-189.1601a194.17138 194.17138 0 0 0 -21.77278-1.23664z"/></clipPath><g clip-path="url(#a)"><g clip-path="url(#a)"><path d="m543.57183 143.239a193.29373 193.29373 0 0 0 -21.76951-1.23664h-.01315a190.75713 190.75713 0 0 0 -21.34517 380.29021 193.39462 193.39462 0 0 0 21.78265 1.23664 190.51206 190.51206 0 0 0 189.29819-169.19952c11.8928-104.49947-63.45354-199.19463-167.953-211.09074" fill="#dc2b1e" transform="translate(-321.07304 -142.00231)"/></g><g clip-path="url(#b)"><path d="m639.16947 323.909-11.79416-8.58084-2.72323-23.22319-25.34786-10.39967-9.00183 9.00183-6.19308-3.00281-25.56163-5.9464-14.83642 14.8397 4.56834-6.25228-5.15048-8.42954-12.988 12.988-13.03079-13.2314-14.33321 14.33321-1.47673-8.94921-12.23157-5.29848-13.18864 14.37268 3.529 2.24963-1.10508-2.88769-7.77506-5.95628-19.8619-1.59843-14.9581 14.95811c-1.651-3.16395-5.81156-11.53432-6.37068-11.86978-.82553-.49664-11.74481-3.63758-11.74481-3.63758l-12.67556-5.657-83.845 83.84494 13.8892 48.1139-1.52935-2.743 12.0145 19.91125 2.17069 7.48233 22.51608 34.50427 32.82692 27.93626 2.58841 2.42394h5.13731v6.16353l6.05824 2.21674 23.91717 10.80088 9.40637 7.53168 9.18929-5.59449 141.19752-141.19747-13.85629-6.647z" fill="#9e211c" transform="translate(-321.07304 -142.00231)"/></g><g clip-path="url(#a)" fill="#fff"><path d="m423.17654 281.68984h-18.28654v42.21026h12.1724v-12.077h7.47576c6.15361 0 10.03785-1.2531 12.98145-4.19669 2.54234-2.60484 3.88095-6.44632 3.88095-11.11661 0-4.51243-1.24322-8.048-3.69677-10.50487-2.98636-2.98309-7.46589-4.31511-14.52725-4.31511m5.07813 19.29292c-.4177.694-.68739.83541-1.61159.83541h-9.58068v-9.75172h5.98916c2.96663 0 4.23945.26969 5.04195 1.06892a5.2719 5.2719 0 0 1 1.0097 3.43365 10.66777 10.66777 0 0 1 -.84854 4.41374" transform="translate(-321.07304 -142.00231)"/><path d="m466.7777 324.51775c12.6065 0 21.75305-9.12022 21.75305-21.69053a21.75305 21.75305 0 1 0 -43.5061 0c0 12.57031 9.14654 21.69053 21.753 21.69053m0-31.5212c5.77537 0 9.08733 3.58167 9.08733 9.83067 0 6.20292-3.312 9.76484-9.08733 9.76484s-9.08734-3.56192-9.08734-9.76484c0-6.249 3.312-9.83067 9.08734-9.83067" transform="translate(-321.07304 -142.00231)"/><path d="m554.9897 281.69082h-10.8667a1.36692 1.36692 0 0 0 -1.54251 1.15115l-3.15738 10.46212c-1.95034 6.45947-3.44353 12.33352-4.46639 16.67821-.87157-4.098-2.21344-9.709-4.15392-16.175l-3.21659-10.83048a1.46954 1.46954 0 0 0 -1.67077-1.286h-8.85384l-3.59149 12.11318c-1.947 6.51537-3.19027 11.906-4.11117 16.11579-1.02615-4.71634-2.743-11.43235-4.2559-16.60914l-3.04226-10.42265c-.319-.95051-.64792-1.1972-1.60172-1.1972h-11.4192l12.0474 40.8026c.33876 1.19717.97023 1.40437 2.16082 1.40437h12.63611l2.03581-7.28827c1.49646-5.28532 3.0916-12.06382 4.075-16.83937.89131 4.11446 2.30555 9.86353 4.29207 17.44454l1.36492 5.27875c.34862 1.21033.90445 1.40437 2.10163 1.40437h12.56373z" transform="translate(-321.07304 -142.00231)"/><path d="m271.039 171.645h-21.431v-6.035h19.017v-10.068h-19.017v-5.601h20.872v-10.252h-33.044v42.207h33.603z"/><path d="m629.62559 308.62956a15.523 15.523 0 0 0 6.60091-12.86306 13.7328 13.7328 0 0 0 -3.70334-10.01153c-2.87454-2.812-7.39025-4.06513-14.64237-4.06513h-18.53647v42.21026h12.17568v-12.94526h5.49253c.90446 0 .90446 0 1.48661.95708l6.25556 10.65286a2.2342 2.2342 0 0 0 2.35487 1.33532h11.99143zm-5.69314-12.30723a8.42785 8.42785 0 0 1 -.83212 3.89412 1.66506 1.66506 0 0 1 -1.753.85842h-9.82733v-9.00842h6.54827c2.75284 0 4.07171.27627 4.85447 1.0097a5.0171 5.0171 0 0 1 1.00973 3.24618" transform="translate(-321.07304 -142.00231)"/><path d="m474.26233 360.06165a12.12682 12.12682 0 0 0 3.35472-8.18945 10.5884 10.5884 0 0 0 -2.96005-7.535c-2.51275-2.447-6.05494-3.44353-12.22828-3.44353h-19.83559v42.207h20.51641c6.34437 0 10.791-1.32873 13.59319-4.06184a12.39137 12.39137 0 0 0 3.51587-9.14654 10.5997 10.5997 0 0 0 -5.95627-9.83065m-9.23205-3.21987c-.21708.36179-.45716.46046-1.11824.46046h-9.14654v-6.28189h7.16659c1.6971 0 2.5588.19735 3.05872.70055a3.06011 3.06011 0 0 1 .64134 2.25293 6.72907 6.72907 0 0 1 -.60187 2.868m-10.26478 9.6629h9.08733c1.832 0 2.76271.21379 3.312.75976a2.90873 2.90873 0 0 1 .694 2.25621 3.96523 3.96523 0 0 1 -.75974 2.68706c-.52953.53282-1.50305.763-3.2462.763h-9.08739z" transform="translate(-321.07304 -142.00231)"/><path d="m508.68175 340.894h-11.36l-15.50075 41.42753-.28943.77948h10.98506a1.62776 1.62776 0 0 0 1.84838-1.32216l1.84839-5.49253h15.59944l2.09176 5.51555a1.71235 1.71235 0 0 0 1.89772 1.29914h11.3896l-16.66506-40.90126a1.61424 1.61424 0 0 0 -1.84509-1.30571m-5.0255 13.261c.68409 2.28582 1.80892 5.37742 3.43036 9.67278l.96695 2.7035h-8.42958l.86828-2.70679c1.43726-4.12762 2.51932-7.3475 3.164-9.66949" transform="translate(-321.07304 -142.00231)"/><path d="m222.126 198.891h-12.172v42.207h32.297v-10.252h-20.125z"/><path d="m259.249 198.891h-12.173v42.207h32.298v-10.252h-20.125z"/><path d="m603.04671 356.58887a8.00372 8.00372 0 1 1 7.9658-8.01515 7.89757 7.89757 0 0 1 -7.9658 8.01515m0-13.82671c-3.46984 0-5.65041 2.368-5.65041 5.81156 0 3.46655 2.18057 5.83458 5.65041 5.83458 3.46652 0 5.64709-2.368 5.64709-5.83458 0-3.44352-2.18057-5.81156-5.64709-5.81156m.25652 7.26527c-.16443-.30587-.18747-.32561-.30586-.32561h-.96037v2.2003h-1.87472v-6.72587h3.187c1.71355 0 2.6476.72685 2.6476 2.15753a2.38388 2.38388 0 0 1 -1.14784 1.92076l1.43069 2.64758h-1.78261a.32771.32771 0 0 1 -.34861-.23351zm-1.26622-1.7563h1.59182a.30564.30564 0 0 0 .30588-.14142 1.08833 1.08833 0 0 0 .21379-.70384.76129.76129 0 0 0 -.21379-.5624 1.14381 1.14381 0 0 0 -.81895-.21049h-1.07876z" transform="translate(-321.07304 -142.00231)"/></g></g><circle cx="320.06817" cy="332.37873" fill="#fff" r="71.61897" stroke="#dc2b1e" stroke-miterlimit="10" stroke-width="7.0288"/><g fill="#dc2b1e" transform="translate(-321.07304 -142.00231)"><path d="m587.667 484.89648v-17.75488h6.48047c3.6416 0 6.48047.77735 8.35449 2.65137a9.73919 9.73919 0 0 1 0 12.45215c-1.874 1.875-4.71289 2.65136-8.35449 2.65136zm6.34668-4.09765c2.06153 0 3.50781-.21387 4.47168-1.07031a4.59227 4.59227 0 0 0 1.3125-3.69629 4.65217 4.65217 0 0 0 -1.3125-3.72168c-.96387-.85743-2.41015-1.07129-4.47168-1.07129h-1.58008v9.55957z"/><path d="m615.56836 485.16406a9.145 9.145 0 1 1 9.15918-9.13183 8.88426 8.88426 0 0 1 -9.15918 9.13183zm0-13.63086c-2.67774 0-4.17676 1.6875-4.17676 4.499 0 2.8125 1.499 4.47265 4.17676 4.47265 2.67871 0 4.17773-1.66015 4.17773-4.47265 0-2.8115-1.49902-4.499-4.17773-4.499z"/><path d="m643.44434 477.2373c0 2.59766-.61622 4.499-2.00879 5.8379a10.36252 10.36252 0 0 1 -12.47852 0c-1.39258-1.33887-2.03515-3.24024-2.03515-5.8379v-10.0957h4.7666v10.44434a2.69 2.69 0 0 0 .72265 2.16894 4.42952 4.42952 0 0 0 2.83887.80371 4.26444 4.26444 0 0 0 2.78516-.80371 2.69 2.69 0 0 0 .72265-2.16894v-10.44434h4.68653z"/><path d="m646.44238 467.1416h8.32813c2.59765 0 4.07031.40235 5.11523 1.41992a4.30645 4.30645 0 0 1 1.2041 3.0791 5.02958 5.02958 0 0 1 -1.63281 3.61524 4.34119 4.34119 0 0 1 2.75781 4.17773 5.05515 5.05515 0 0 1 -1.44629 3.77539c-1.17773 1.15235-3.0791 1.6875-5.70312 1.6875h-8.62305zm8.97071 7.09668a.689.689 0 0 0 .69629-.32129 3.10986 3.10986 0 0 0 .29492-1.36523 1.56214 1.56214 0 0 0 -.34864-1.15235 2.0259 2.0259 0 0 0 -1.499-.375h-3.34766v3.21387zm-4.20411 6.77539h4.17774a2.15821 2.15821 0 0 0 1.58008-.40234 1.94571 1.94571 0 0 0 .40136-1.33887 1.52149 1.52149 0 0 0 -.375-1.15137c-.29492-.29394-.75-.40136-1.60644-.40136h-4.17772z"/><path d="m664.8916 467.1416h4.7666v13.8184h8.70313v3.93652h-13.46973z"/><path d="m694.6416 467.1416v3.93652h-9.02441v2.91895h8.2207v3.85645h-8.2207v3.10648h9.26562v3.93652h-14.03222v-17.75492z"/><path d="m612.81055 502.88184v5.22168h-4.76655v-17.75489h7.6582c2.94629 0 4.84765.53614 6.10644 1.79492a5.95914 5.95914 0 0 1 1.52637 4.36426 6.468 6.468 0 0 1 -1.60742 4.63281c-1.17774 1.17872-2.78516 1.74122-5.43555 1.74122zm4.3916-3.83008a.86161.86161 0 0 0 .91015-.48145 4.83032 4.83032 0 0 0 .40235-2.03515 2.50729 2.50729 0 0 0 -.50879-1.66016c-.42871-.42871-1.09863-.53613-2.35645-.53613h-2.83886v4.71289z"/><path d="m625.583 490.34863h4.7666v13.81837h8.70312v3.93653h-13.46972z"/><path d="m647.03125 490.34863h4.74023c.32129 0 .42774.02735.5625.40235l7.06934 17.35254h-4.55273a.504.504 0 0 1 -.58887-.40137l-.96387-2.54395h-7.09668l-.85742 2.54395c-.10645.34765-.24023.40137-.56152.40137h-4.39258zm2.54395 4.52637a46.071 46.071 0 0 1 -1.58008 5.06055l-.48145 1.5h4.33789l-.53515-1.5a42.29171 42.29171 0 0 1 -1.71485-5.06055z"/><path d="m666.499 498.81152c.5625-1.39257 1.39258-2.97265 2.51758-5.08886l1.63379-3.05274c.16016-.26758.24023-.32129.53516-.32129h4.9541l-7.36426 12.39942v5.35547h-4.7666v-5.35547l-7.498-12.39942h5.168c.29492 0 .375.05371.53613.32129l1.76661 3.16016a42.25533 42.25533 0 0 1 2.49121 4.98144z"/><path d="m610.37891 456.83594a.361.361 0 0 1 -.35254-.16309l-2.7666-3.458c-.55274-.6914-1.08106-1.37011-1.29493-1.68457h-.01172v5.30567h-1.84863v-8.33595h1.47071a.35051.35051 0 0 1 .35253.16309l2.76563 3.458c.55371.69141 1.082 1.38282 1.29492 1.69727v-5.31836h1.84863v8.33594z"/><path d="m618.31836 456.96191a4.29434 4.29434 0 1 1 4.23633-4.28808 4.1493 4.1493 0 0 1 -4.23633 4.28808zm0-6.66406c-1.37109 0-2.18848.80469-2.18848 2.376 0 1.60937.81739 2.36426 2.18848 2.36426 1.37012 0 2.1875-.792 2.1875-2.36426 0-1.58401-.81738-2.376-2.1875-2.376z"/><path d="m630.77344 448.5c.15039 0 .20117.02539.251.17578l.84278 2.8291c.40234 1.37012.72851 2.62793.86719 3.30664.15039-.67871.47753-1.91113.89257-3.25683l.87989-2.87891a.21256.21256 0 0 1 .23925-.17578h1.74805l-2.64062 8.33594h-2.01175c-.17578 0-.26368-.0625-.30176-.18848l-.59082-2.0625c-.37695-1.332-.72949-2.70312-.86817-3.39453-.125.7041-.52734 2.28809-.86718 3.4834l-.61621 2.16211h-2.02442c-.17578 0-.26367-.0625-.30176-.18848l-2.56448-8.14746h1.836c.15039 0 .20117.02539.251.17578l.84277 2.791c.31445 1.03125.7168 2.47754.89258 3.34472.16308-.89257.50293-2.1748.86718-3.41992l.85547-2.89158z"/><path d="m648.45312 448.5c.15137 0 .20118.02539.252.17578l.84277 2.8291c.40235 1.37012.72852 2.62793.86719 3.30664.15137-.67871.47754-1.91113.89258-3.25683l.87988-2.87891a.21257.21257 0 0 1 .23926-.17578h1.748l-2.64062 8.33594h-2.01172c-.17578 0-.26465-.0625-.30176-.18848l-.59082-2.0625c-.37793-1.332-.72949-2.70312-.86816-3.39453-.125.7041-.52734 2.28809-.86719 3.4834l-.61621 2.16211h-2.02441c-.17579 0-.26368-.0625-.30176-.18848l-2.56445-8.14746h1.835c.15136 0 .20117.02539.25195.17578l.84277 2.791c.31348 1.03125.71582 2.47754.89258 3.34472.16309-.89257.50293-2.1748.86719-3.41992l.85547-2.8916z"/><path d="m658.001 456.83594h-1.961v-8.33594h1.961z"/><path d="m662.82715 450.14648h-2.77832v-1.64648h7.51855v1.64648h-2.77832v6.68946h-1.96191z"/><path d="m675.20605 453.40332h-3.63378v3.43262h-1.96094v-8.33594h1.96094v3.20605h3.63378v-3.20605h1.96195v8.33594h-1.96192z"/></g></svg>